<?xml version="1.0" encoding="utf-8"?>
<svg id="master-artboard" viewBox="0 0 1920 1080" version="1.1" xmlns="http://www.w3.org/2000/svg" x="0px" y="0px" style="enable-background:new 0 0 336 235.2;" width="1920px" height="1080px"><rect id="ee-background" x="0" y="0" width="1920" height="1080" style="fill: white; fill-opacity: 0; pointer-events: none;"/><defs><style id="ee-google-fonts">@import url(https://fonts.googleapis.com/css?family=Audiowide:400);</style></defs><path d="M 445.4024963378906 520.9281005859375 L 429.4125061035156 553.4880981445312 C 429.16583251953125 553.9880981445312 428.79583740234375 554.3914184570312 428.302490234375 554.6981201171875 C 427.802490234375 555.0047607421875 427.2558288574219 555.1580810546875 426.6625061035156 555.1580810546875 C 426.0824890136719 555.1580810546875 425.54583740234375 555.0047607421875 425.052490234375 554.6981201171875 C 424.5591735839844 554.3914184570312 424.1791687011719 553.9880981445312 423.9125061035156 553.4880981445312 L 407.9425048828125 520.9281005859375 L 414.7925109863281 520.9281005859375 L 426.6625061035156 545.2481079101562 L 438.572509765625 520.9281005859375 L 445.4024963378906 520.9281005859375 ZM 483.5934753417969 541.0281372070312 C 483.5934753417969 543.088134765625 483.2401428222656 544.9814453125 482.5334777832031 546.7081298828125 C 481.8268127441406 548.4347534179688 480.8468017578125 549.9248046875 479.5934753417969 551.1781005859375 C 478.33349609375 552.4381103515625 476.8468017578125 553.414794921875 475.13348388671875 554.1080932617188 C 473.4134826660156 554.80810546875 471.5401611328125 555.1580810546875 469.51348876953125 555.1580810546875 L 461.2234802246094 555.1580810546875 C 459.2034912109375 555.1580810546875 457.33013916015625 554.80810546875 455.6034851074219 554.1080932617188 C 453.8768310546875 553.414794921875 452.38348388671875 552.4381103515625 451.12347412109375 551.1781005859375 C 449.8701477050781 549.9248046875 448.8868103027344 548.4347534179688 448.1734924316406 546.7081298828125 C 447.46014404296875 544.9814453125 447.1034851074219 543.088134765625 447.1034851074219 541.0281372070312 L 447.1034851074219 534.578125 C 447.1034851074219 532.5380859375 447.46014404296875 530.6514282226562 448.1734924316406 528.9180908203125 C 448.8868103027344 527.1847534179688 449.8701477050781 525.6947631835938 451.12347412109375 524.4481201171875 C 452.38348388671875 523.201416015625 453.8768310546875 522.2247924804688 455.6034851074219 521.5181274414062 C 457.33013916015625 520.8114624023438 459.2034912109375 520.4581298828125 461.2234802246094 520.4581298828125 L 469.51348876953125 520.4581298828125 C 471.5401611328125 520.4581298828125 473.4134826660156 520.8114624023438 475.13348388671875 521.5181274414062 C 476.8468017578125 522.2247924804688 478.33349609375 523.201416015625 479.5934753417969 524.4481201171875 C 480.8468017578125 525.6947631835938 481.8268127441406 527.1847534179688 482.5334777832031 528.9180908203125 C 483.2401428222656 530.6514282226562 483.5934753417969 532.5380859375 483.5934753417969 534.578125 L 483.5934753417969 541.0281372070312 M 477.4734802246094 534.578125 C 477.4734802246094 533.3714599609375 477.2801513671875 532.2781372070312 476.89349365234375 531.298095703125 C 476.5068054199219 530.318115234375 475.9668273925781 529.4780883789062 475.27349853515625 528.7781372070312 C 474.573486328125 528.078125 473.7334899902344 527.5347900390625 472.75347900390625 527.1481323242188 C 471.77349853515625 526.7681274414062 470.6934814453125 526.578125 469.51348876953125 526.578125 L 461.2234802246094 526.578125 C 460.0301513671875 526.578125 458.9434814453125 526.7681274414062 457.9634704589844 527.1481323242188 C 456.9834899902344 527.5347900390625 456.14013671875 528.078125 455.4334716796875 528.7781372070312 C 454.726806640625 529.4780883789062 454.1801452636719 530.318115234375 453.7934875488281 531.298095703125 C 453.4134826660156 532.2781372070312 453.2234802246094 533.3714599609375 453.2234802246094 534.578125 L 453.2234802246094 541.0281372070312 C 453.2234802246094 542.241455078125 453.4134826660156 543.338134765625 453.7934875488281 544.318115234375 C 454.1801452636719 545.298095703125 454.726806640625 546.1381225585938 455.4334716796875 546.838134765625 C 456.14013671875 547.5380859375 456.9834899902344 548.078125 457.9634704589844 548.4581298828125 C 458.9434814453125 548.8447875976562 460.0301513671875 549.0380859375 461.2234802246094 549.0380859375 L 469.4635009765625 549.0380859375 C 470.6568298339844 549.0380859375 471.74346923828125 548.8447875976562 472.7234802246094 548.4581298828125 C 473.71014404296875 548.078125 474.55682373046875 547.5380859375 475.26348876953125 546.838134765625 C 475.9635009765625 546.1381225585938 476.5068054199219 545.298095703125 476.89349365234375 544.318115234375 C 477.2801513671875 543.338134765625 477.4734802246094 542.241455078125 477.4734802246094 541.0281372070312 L 477.4734802246094 534.578125 ZM 523.3388061523438 540.55810546875 C 523.3388061523438 542.6181030273438 522.9821166992188 544.511474609375 522.268798828125 546.2380981445312 C 521.5554809570312 547.9647827148438 520.5687866210938 549.451416015625 519.308837890625 550.6981201171875 C 518.0554809570312 551.9447631835938 516.5654907226562 552.9214477539062 514.8388061523438 553.6281127929688 C 513.1121215820312 554.3347778320312 511.2354736328125 554.6881103515625 509.20880126953125 554.6881103515625 L 492.6788024902344 554.6881103515625 C 492.2388000488281 554.6881103515625 491.8321533203125 554.6080932617188 491.45880126953125 554.4481201171875 C 491.07879638671875 554.2947998046875 490.75213623046875 554.0814208984375 490.47882080078125 553.80810546875 C 490.2054748535156 553.5347900390625 489.9888000488281 553.2081298828125 489.82879638671875 552.828125 C 489.67547607421875 552.4481201171875 489.59881591796875 552.0414428710938 489.59881591796875 551.6080932617188 L 489.59881591796875 524.0081176757812 C 489.59881591796875 523.588134765625 489.67547607421875 523.1881103515625 489.82879638671875 522.80810546875 C 489.9888000488281 522.4347534179688 490.2054748535156 522.1047973632812 490.47882080078125 521.818115234375 C 490.75213623046875 521.5380859375 491.07879638671875 521.318115234375 491.45880126953125 521.1580810546875 C 491.8321533203125 521.0047607421875 492.2388000488281 520.9281005859375 492.6788024902344 520.9281005859375 L 509.20880126953125 520.9281005859375 C 511.2354736328125 520.9281005859375 513.1121215820312 521.2814331054688 514.8388061523438 521.9880981445312 C 516.5654907226562 522.6947631835938 518.0554809570312 523.6714477539062 519.308837890625 524.9180908203125 C 520.5687866210938 526.164794921875 521.5554809570312 527.65478515625 522.268798828125 529.3881225585938 C 522.9821166992188 531.1214599609375 523.3388061523438 533.0081176757812 523.3388061523438 535.048095703125 L 523.3388061523438 540.55810546875 M 517.2188110351562 535.048095703125 C 517.2188110351562 533.8547973632812 517.0254516601562 532.7647705078125 516.6387939453125 531.7781372070312 C 516.2521362304688 530.7914428710938 515.7054443359375 529.9481201171875 514.998779296875 529.2481079101562 C 514.2921142578125 528.548095703125 513.4487915039062 528.0081176757812 512.4688110351562 527.6281127929688 C 511.4888000488281 527.241455078125 510.4021301269531 527.048095703125 509.20880126953125 527.048095703125 L 495.71881103515625 527.048095703125 L 495.71881103515625 548.568115234375 L 509.20880126953125 548.568115234375 C 510.4021301269531 548.568115234375 511.4888000488281 548.374755859375 512.4688110351562 547.9880981445312 C 513.4487915039062 547.6014404296875 514.2921142578125 547.0614624023438 514.998779296875 546.3681030273438 C 515.7054443359375 545.6680908203125 516.2521362304688 544.828125 516.6387939453125 543.8480834960938 C 517.0254516601562 542.8681030273438 517.2188110351562 541.7714233398438 517.2188110351562 540.55810546875 L 517.2188110351562 535.048095703125 ZM 556.0347900390625 537.6680908203125 C 556.0347900390625 538.5147705078125 555.8881225585938 539.4281005859375 555.5947875976562 540.4080810546875 C 555.2947998046875 541.3881225585938 554.8114624023438 542.298095703125 554.144775390625 543.1381225585938 C 553.4781494140625 543.9780883789062 552.608154296875 544.6814575195312 551.5347900390625 545.2481079101562 C 550.4547729492188 545.8147583007812 549.1481323242188 546.0980834960938 547.6148071289062 546.0980834960938 L 536.5648193359375 546.0980834960938 L 536.5648193359375 540.2781372070312 L 547.6148071289062 540.2781372070312 C 548.4414672851562 540.2781372070312 549.0847778320312 540.0247802734375 549.5447998046875 539.5181274414062 C 549.9981079101562 539.0047607421875 550.2247924804688 538.3714599609375 550.2247924804688 537.6181030273438 C 550.2247924804688 536.818115234375 549.9681396484375 536.1914672851562 549.4547729492188 535.7380981445312 C 548.9481201171875 535.2781372070312 548.3347778320312 535.048095703125 547.6148071289062 535.048095703125 L 536.5648193359375 535.048095703125 C 535.7380981445312 535.048095703125 535.0947875976562 535.3047485351562 534.634765625 535.818115234375 C 534.1814575195312 536.3247680664062 533.9547729492188 536.9547729492188 533.9547729492188 537.7081298828125 L 533.9547729492188 546.2581176757812 C 533.9547729492188 547.078125 534.21142578125 547.7147827148438 534.7247924804688 548.1680908203125 C 535.2314453125 548.6214599609375 535.8614501953125 548.8480834960938 536.6148071289062 548.8480834960938 L 547.6148071289062 548.8480834960938 L 547.6148071289062 554.6881103515625 L 536.5648193359375 554.6881103515625 C 535.7181396484375 554.6881103515625 534.8048095703125 554.5380859375 533.8247680664062 554.2380981445312 C 532.8447875976562 553.9447631835938 531.934814453125 553.46142578125 531.0947875976562 552.7880859375 C 530.2547607421875 552.1214599609375 529.5514526367188 551.25146484375 528.9848022460938 550.1781005859375 C 528.4181518554688 549.1047973632812 528.134765625 547.798095703125 528.134765625 546.2581176757812 L 528.134765625 537.6680908203125 C 528.134765625 536.8214721679688 528.2847900390625 535.90478515625 528.5847778320312 534.9180908203125 C 528.884765625 533.9381103515625 529.3681030273438 533.0281372070312 530.0347900390625 532.1881103515625 C 530.7014770507812 531.3480834960938 531.5714721679688 530.6481323242188 532.644775390625 530.088134765625 C 533.7247924804688 529.5214233398438 535.0314331054688 529.2380981445312 536.5648193359375 529.2380981445312 L 547.6148071289062 529.2380981445312 C 548.46142578125 529.2380981445312 549.3748168945312 529.3881225585938 550.3547973632812 529.6881103515625 C 551.3347778320312 529.9814453125 552.2448120117188 530.46142578125 553.0847778320312 531.1281127929688 C 553.9248046875 531.7947998046875 554.6281127929688 532.6680908203125 555.1947631835938 533.7481079101562 C 555.7547607421875 534.8214721679688 556.0347900390625 536.1281127929688 556.0347900390625 537.6680908203125 ZM 582.437255859375 535.3580932617188 L 568.6572265625 535.3580932617188 C 567.8239135742188 535.3580932617188 567.1972045898438 535.5647583007812 566.7772216796875 535.9780883789062 C 566.3505859375 536.3981323242188 566.13720703125 537.0081176757812 566.13720703125 537.80810546875 L 566.13720703125 554.6881103515625 L 560.0172119140625 554.6881103515625 L 560.0172119140625 537.80810546875 C 560.0172119140625 536.7547607421875 560.1505737304688 535.8114624023438 560.417236328125 534.9780883789062 C 560.6838989257812 534.1514282226562 561.0405883789062 533.4180908203125 561.4872436523438 532.7781372070312 C 561.9338989257812 532.144775390625 562.4472045898438 531.6047973632812 563.0272216796875 531.1580810546875 C 563.6138916015625 530.71142578125 564.223876953125 530.3447875976562 564.8572387695312 530.05810546875 C 565.4905395507812 529.7781372070312 566.1339111328125 529.5714721679688 566.7872314453125 529.4381103515625 C 567.4405517578125 529.3047485351562 568.0472412109375 529.2380981445312 568.6072387695312 529.2380981445312 L 582.437255859375 529.2380981445312 L 582.437255859375 535.3580932617188 ZM 614.5264282226562 557.1381225585938 C 614.5264282226562 558.1914672851562 614.39306640625 559.1381225585938 614.1264038085938 559.9780883789062 C 613.8597412109375 560.818115234375 613.5064086914062 561.5547485351562 613.06640625 562.1881103515625 C 612.6264038085938 562.8214721679688 612.116455078125 563.3614501953125 611.5364379882812 563.80810546875 C 610.9564208984375 564.2547607421875 610.346435546875 564.6214599609375 609.7064208984375 564.9080810546875 C 609.0731201171875 565.1881103515625 608.43310546875 565.394775390625 607.7864379882812 565.5281372070312 C 607.1464233398438 565.6614379882812 606.5364379882812 565.7280883789062 605.9564208984375 565.7280883789062 L 594.9064331054688 565.7280883789062 L 594.9064331054688 559.6080932617188 L 605.9564208984375 559.6080932617188 C 606.769775390625 559.6080932617188 607.3797607421875 559.3981323242188 607.7864379882812 558.9780883789062 C 608.1997680664062 558.5514526367188 608.4064331054688 557.9381103515625 608.4064331054688 557.1381225585938 L 608.4064331054688 529.2380981445312 L 614.5264282226562 529.2380981445312 L 614.5264282226562 557.1381225585938 M 605.9564208984375 554.6881103515625 L 594.9064331054688 554.6881103515625 C 594.0330810546875 554.6881103515625 593.096435546875 554.5380859375 592.096435546875 554.2380981445312 C 591.1030883789062 553.9447631835938 590.173095703125 553.4547729492188 589.306396484375 552.7681274414062 C 588.4464111328125 552.088134765625 587.7330932617188 551.201416015625 587.1664428710938 550.1080932617188 C 586.5997314453125 549.0147705078125 586.31640625 547.6781005859375 586.31640625 546.0980834960938 L 586.31640625 529.2380981445312 L 592.4364013671875 529.2380981445312 L 592.4364013671875 546.0980834960938 C 592.4364013671875 546.8981323242188 592.6497802734375 547.5081176757812 593.076416015625 547.9281005859375 C 593.4963989257812 548.3547973632812 594.1231079101562 548.568115234375 594.9564208984375 548.568115234375 L 605.9564208984375 548.568115234375 L 605.9564208984375 554.6881103515625 Z" transform="matrix(8.940547943115234, 0, 0, 8.940547943115234, -3620.851318359375, -4253.34033203125)" style="fill: rgb(251, 255, 247); white-space: pre; color: rgb(51, 51, 51); fill-opacity: 1; stroke: rgb(224, 228, 226); stroke-opacity: 1; stroke-width: 1; paint-order: fill;"/></svg>